# File created by Blade
# Date/Time:  Thu Sep 25 19:04:16 2014
# Frame Rate: 120.000 fps
#------------------------------------------------------
:FULLY-SPECIFIED
:DEGREES
370
root -2.998164 30.500154 -5.899212 28.234815 6.547426 -26.996064
Spine -2.316067 -12.272496 -26.004640
Head -27.735673 -3.909033 10.834429
LeftShoulder -8.840887 10.601595 30.187620
LeftArm 17.018359 -26.396013 -30.853788
LeftForeArm 9.601958 -0.000000 14.402969
LeftHand -28.374375 -0.000000 -4.103672
LeftHandThumb1 -26.253704 0.000000 33.147579
RightShoulder -18.941657 12.876354 -40.591394
RightArm -20.027910 4.104162 29.657532
RightForeArm -21.433309 -0.000000 13.130132
RightHand -9.037513 -0.000000 4.188585
RightHandThumb1 -24.326973 -0.000000 -32.862282
LeftUpLeg -23.125150 33.206656 46.632775
LeftLeg -4.216380 -0.000000 0.000000
LeftFoot 2.014028 7.887335 -39.193602
LeftToeBase 10.156305 -0.000000 -0.000000
RightUpLeg -26.314867 -7.146060 14.768542
RightLeg -1.451668 -0.000000 0.000000
RightFoot -0.076747 -7.808452 16.129461
RightToeBase 2.967708 -0.000000 -0.000000
371
root -3.032159 30.493641 -5.939806 28.509557 6.593133 -27.411959
Spine -2.058849 -12.509590 -26.449516
Head -28.170779 -4.000752 10.885503
LeftShoulder -8.769299 10.510435 30.230364
LeftArm 16.795693 -26.251686 -30.635178
LeftForeArm 9.535938 -0.000000 14.392921
LeftHand -28.479257 -0.000000 -4.187447
LeftHandThumb1 -26.253704 0.000000 33.147579
RightShoulder -18.973107 12.813241 -40.657248
RightArm -20.067607 3.754209 29.710623
RightForeArm -21.108672 -0.000000 13.045926
RightHand -9.195356 -0.000000 3.814280
RightHandThumb1 -24.326973 -0.000000 -32.862282
LeftUpLeg -23.285757 33.569148 47.026502
LeftLeg -4.254410 -0.000000 0.000000
LeftFoot 2.103957 7.948424 -39.226029
LeftToeBase 9.977175 -0.000000 -0.000000
RightUpLeg -26.650024 -6.971398 15.278563
RightLeg -1.481336 -0.000000 0.000000
RightFoot 0.060851 -7.744845 16.030476
RightToeBase 2.975744 -0.000000 -0.000000
372
root -3.059599 30.485643 -5.978662 28.795694 6.636224 -27.769913
Spine -1.802534 -12.679348 -26.954999
Head -28.625344 -4.168417 10.963122
LeftShoulder -8.634471 10.427269 30.300948
LeftArm 16.620096 -26.090349 -30.472228
LeftForeArm 9.501100 -0.000000 14.388983
LeftHand -28.449155 -0.000000 -3.971538
LeftHandThumb1 -26.253704 0.000000 33.147579
RightShoulder -18.958649 12.797482 -40.717231
RightArm -20.334521 3.432793 29.669887
RightForeArm -20.817880 -0.000000 13.056080
RightHand -9.378965 -0.000000 3.672466
RightHandThumb1 -24.326973 -0.000000 -32.862282
LeftUpLeg -23.465638 33.901023 47.349684
LeftLeg -4.307514 -0.000000 0.000000
LeftFoot 2.169780 8.041449 -39.314624
LeftToeBase 10.129534 -0.000000 -0.000000
RightUpLeg -26.980801 -6.739919 15.686120
RightLeg -1.521296 -0.000000 0.000000
RightFoot 0.152134 -7.769972 15.986525
RightToeBase 2.968851 -0.000000 -0.000000
373
root -3.089341 30.478247 -6.018587 29.090144 6.669631 -28.149093
Spine -1.566502 -12.893253 -27.427242
Head -29.083636 -4.254765 11.024414
LeftShoulder -8.542836 10.382548 30.366566
LeftArm 16.469214 -26.067681 -30.364890
LeftForeArm 9.560643 -0.000000 14.321134
LeftHand -28.415642 0.000000 -3.993640
LeftHandThumb1 -26.253704 0.000000 33.147579
RightShoulder -18.910419 12.898642 -40.805385
RightArm -20.666618 2.969236 29.647546
RightForeArm -20.535776 0.000000 13.131572
RightHand -9.531109 0.000000 3.634278
RightHandThumb1 -24.326973 -0.000000 -32.862282
LeftUpLeg -23.629833 34.203992 47.733468
LeftLeg -4.316716 -0.000000 0.000000
LeftFoot 2.183389 8.155554 -39.425376
LeftToeBase 10.136853 -0.000000 -0.000000
RightUpLeg -27.324189 -6.452846 16.094345
RightLeg -1.542735 -0.000000 0.000000
RightFoot 0.234967 -7.826118 15.949452
RightToeBase 2.979309 -0.000000 -0.000000
374
root -3.123338 30.472213 -6.058765 29.384166 6.723668 -28.538828
Spine -1.318672 -13.115651 -27.884629
Head -29.559803 -4.342908 11.097550
LeftShoulder -8.466862 10.330943 30.450209
LeftArm 16.279562 -25.925324 -30.226485
LeftForeArm 9.462070 -0.000000 14.315922
LeftHand -28.442659 0.000000 -3.955566
LeftHandThumb1 -26.253704 0.000000 33.147579
RightShoulder -18.833728 12.845580 -40.822980
RightArm -20.918761 2.542937 29.641018
RightForeArm -20.066415 -0.000000 13.181094
RightHand -9.665700 -0.000000 3.328580
RightHandThumb1 -24.326973 -0.000000 -32.862282
LeftUpLeg -23.816419 34.490925 48.142644
LeftLeg -4.292518 -0.000000 0.000000
LeftFoot 2.214219 8.299438 -39.545133
LeftToeBase 10.124548 -0.000000 -0.000000
RightUpLeg -27.675015 -6.251314 16.566743
RightLeg -1.563389 -0.000000 0.000000
RightFoot 0.346784 -7.789907 15.911921
RightToeBase 3.006110 -0.000000 -0.000000
375
root -3.151631 30.465087 -6.099858 29.683342 6.775071 -28.858238
Spine -1.020216 -13.343190 -28.417293
Head -30.112765 -4.393911 11.198479
LeftShoulder -8.441696 10.247302 30.538279
LeftArm 16.159159 -25.765987 -30.108960
LeftForeArm 9.409909 -0.000000 14.294340
LeftHand -28.487016 -0.000000 -3.897365
LeftHandThumb1 -26.253704 0.000000 33.147579
RightShoulder -18.810430 12.780204 -40.859835
RightArm -21.160030 2.093025 29.692635
RightForeArm -19.562983 -0.000000 13.207072
RightHand -9.745382 -0.000000 3.066658
RightHandThumb1 -24.326973 -0.000000 -32.862282
LeftUpLeg -24.036960 34.753862 48.453963
LeftLeg -4.267064 -0.000000 0.000000
LeftFoot 2.218638 8.436196 -39.630211
LeftToeBase 10.096986 -0.000000 -0.000000
RightUpLeg -28.016766 -5.978874 16.915545
RightLeg -1.599134 -0.000000 0.000000
RightFoot 0.415841 -7.874746 15.861369
RightToeBase 2.995015 -0.000000 -0.000000
